<svg xmlns="http://www.w3.org/2000/svg" viewBox="0 0 400 300" fill="none">
  <defs>
    <linearGradient id="cbg" x1="0" y1="0" x2="1" y2="1">
      <stop offset="0%" stop-color="#F8F4F0"/>
      <stop offset="100%" stop-color="#EDE4DA"/>
    </linearGradient>
  </defs>
  <rect width="400" height="300" fill="url(#cbg)" rx="16"/>
  <!-- Paw pattern background -->
  <g opacity="0.03" fill="#D71F84">
    <path d="M30 30c2 0 3.5 3 3.5 7s-1.5 7-3.5 7-3.5-3-3.5-7 1.5-7 3.5-7zm-7 11c-1.5 0-2.5-2-2.5-5s1-5 2.5-5 2.5 2 2.5 5-1 5-2.5 5zm14 0c-1.5 0-2.5-2-2.5-5s1-5 2.5-5 2.5 2 2.5 5-1 5-2.5 5z"/>
    <path d="M350 50c2 0 3.5 3 3.5 7s-1.5 7-3.5 7-3.5-3-3.5-7 1.5-7 3.5-7zm-7 11c-1.5 0-2.5-2-2.5-5s1-5 2.5-5 2.5 2 2.5 5-1 5-2.5 5zm14 0c-1.5 0-2.5-2-2.5-5s1-5 2.5-5 2.5 2 2.5 5-1 5-2.5 5z"/>
  </g>
  <!-- Exam table -->
  <rect x="50" y="210" width="300" height="10" rx="5" fill="#B8C4CC"/>
  <rect x="65" y="220" width="6" height="40" rx="3" fill="#9AA8B2"/>
  <rect x="329" y="220" width="6" height="40" rx="3" fill="#9AA8B2"/>
  <!-- === VET WITH CLIPBOARD === -->
  <g transform="translate(140, 20)">
    <!-- Body -->
    <path d="M50 90 L40 200 L100 200 L90 90Z" fill="white" stroke="#E2E8F0" stroke-width="1"/>
    <circle cx="70" cy="130" r="2" fill="#D71F84"/>
    <circle cx="70" cy="143" r="2" fill="#D71F84"/>
    <!-- Head -->
    <circle cx="70" cy="60" r="28" fill="#E8B89A"/>
    <path d="M42 52 Q48 22 70 26 Q92 22 98 52" fill="#3D2B1F"/>
    <ellipse cx="70" cy="24" rx="14" ry="10" fill="#3D2B1F"/>
    <ellipse cx="62" cy="58" rx="4" ry="4.5" fill="white"/>
    <ellipse cx="78" cy="58" rx="4" ry="4.5" fill="white"/>
    <circle cx="62.5" cy="58" r="2.8" fill="#4A3728"/>
    <circle cx="78.5" cy="58" r="2.8" fill="#4A3728"/>
    <circle cx="63.5" cy="57" r="1" fill="white"/>
    <circle cx="79.5" cy="57" r="1" fill="white"/>
    <path d="M67 65 L70 68 L73 65" fill="#D4856A"/>
    <path d="M64 70 Q70 75 76 70" stroke="#C07A5A" stroke-width="1.5" fill="none" stroke-linecap="round"/>
    <!-- Stethoscope -->
    <path d="M60 82 Q50 92 48 105 Q46 115 54 118" stroke="#555" stroke-width="2.5" fill="none"/>
    <circle cx="54" cy="120" r="5" fill="#777" stroke="#555" stroke-width="1.5"/>
    <!-- Left arm with clipboard -->
    <path d="M50 105 Q30 118 22 128" stroke="white" stroke-width="10" stroke-linecap="round" fill="none"/>
    <circle cx="20" cy="130" r="6" fill="#E8B89A"/>
    <!-- Clipboard -->
    <rect x="2" y="105" width="38" height="50" rx="4" fill="#F5F0E8" stroke="#C8B8A0" stroke-width="1.5"/>
    <rect x="14" y="101" width="14" height="8" rx="3" fill="#C8B8A0"/>
    <line x1="9" y1="122" x2="33" y2="122" stroke="#D71F84" stroke-width="2"/>
    <line x1="9" y1="129" x2="30" y2="129" stroke="#DDD" stroke-width="1.5"/>
    <line x1="9" y1="136" x2="28" y2="136" stroke="#DDD" stroke-width="1.5"/>
    <line x1="9" y1="143" x2="26" y2="143" stroke="#DDD" stroke-width="1.5"/>
    <circle cx="6" cy="122" r="2" fill="#27AE60"/>
    <circle cx="6" cy="129" r="2" fill="#27AE60"/>
    <circle cx="6" cy="136" r="2" fill="#27AE60"/>
    <!-- Right arm examining cat -->
    <path d="M90 105 Q115 118 125 135" stroke="white" stroke-width="10" stroke-linecap="round" fill="none"/>
    <circle cx="127" cy="137" r="6" fill="#E8B89A"/>
  </g>
  <!-- === PERSIAN CAT on table === -->
  <g transform="translate(60, 100)">
    <ellipse cx="50" cy="95" rx="38" ry="35" fill="#F5EDE8"/>
    <circle cx="50" cy="60" r="26" fill="#F5EDE8"/>
    <circle cx="50" cy="64" r="16" fill="#FAF5F0"/>
    <path d="M28 42 L24 24 L36 38Z" fill="#F0E6DE"/>
    <path d="M72 42 L76 24 L64 38Z" fill="#F0E6DE"/>
    <path d="M30 40 L27 30 L34 38Z" fill="#F0C0B0"/>
    <path d="M70 40 L73 30 L66 38Z" fill="#F0C0B0"/>
    <circle cx="42" cy="58" r="4.5" fill="white"/>
    <circle cx="58" cy="58" r="4.5" fill="white"/>
    <circle cx="42.5" cy="58" r="2.8" fill="#D4956A"/>
    <circle cx="58.5" cy="58" r="2.8" fill="#D4956A"/>
    <circle cx="43.5" cy="57" r="1" fill="white"/>
    <circle cx="59.5" cy="57" r="1" fill="white"/>
    <ellipse cx="50" cy="65" rx="3" ry="2" fill="#D4856A"/>
    <path d="M46 69 Q50 73 54 69" stroke="#C07A5A" stroke-width="1.5" fill="none"/>
    <path d="M24 60 L38 62" stroke="#D4C4B8" stroke-width="1"/>
    <path d="M22 66 L37 66" stroke="#D4C4B8" stroke-width="1"/>
    <path d="M62 62 L76 60" stroke="#D4C4B8" stroke-width="1"/>
    <path d="M63 66 L78 66" stroke="#D4C4B8" stroke-width="1"/>
    <ellipse cx="32" cy="128" rx="11" ry="7" fill="#F0E6DE"/>
    <ellipse cx="68" cy="128" rx="11" ry="7" fill="#F0E6DE"/>
    <path d="M85 90 Q98 78 96 62 Q94 56 91 60 Q87 72 83 86" fill="#F5EDE8"/>
  </g>
  <!-- === MAINE COON on table === -->
  <g transform="translate(220, 110)">
    <ellipse cx="55" cy="80" rx="40" ry="36" fill="#D4B896"/>
    <path d="M30 72 Q55 65 80 72" stroke="#B09070" stroke-width="1.5" fill="none" opacity="0.3"/>
    <circle cx="55" cy="40" r="24" fill="#D4B896"/>
    <path d="M35 22 L26 4 L42 18Z" fill="#C4A882"/>
    <path d="M75 22 L84 4 L68 18Z" fill="#C4A882"/>
    <path d="M30 10 L24 2 L34 8Z" fill="#D4B896"/>
    <path d="M80 10 L86 2 L76 8Z" fill="#D4B896"/>
    <path d="M37 35 Q28 45 32 55 Q36 46 38 38Z" fill="#E0C8A8"/>
    <path d="M73 35 Q82 45 78 55 Q74 46 72 38Z" fill="#E0C8A8"/>
    <circle cx="47" cy="38" r="3.5" fill="white"/>
    <circle cx="63" cy="38" r="3.5" fill="white"/>
    <circle cx="47.5" cy="38" r="2.2" fill="#27AE60"/>
    <circle cx="63.5" cy="38" r="2.2" fill="#27AE60"/>
    <circle cx="48.2" cy="37" r="0.8" fill="white"/>
    <circle cx="64.2" cy="37" r="0.8" fill="white"/>
    <path d="M52 43 L55 45 L58 43" fill="#8B6F47"/>
    <path d="M49 47 Q55 51 61 47" stroke="#7A5F37" stroke-width="1.5" fill="none"/>
    <path d="M26 40 L42 42" stroke="#C4A882" stroke-width="1"/>
    <path d="M68 42 L84 40" stroke="#C4A882" stroke-width="1"/>
    <path d="M92 75 Q108 60 106 42 Q104 36 101 40 Q97 52 90 70" fill="#C4A882"/>
    <ellipse cx="38" cy="114" rx="11" ry="7" fill="#D4B896"/>
    <ellipse cx="72" cy="114" rx="11" ry="7" fill="#D4B882"/>
  </g>
  <!-- Heart + stethoscope icon -->
  <g transform="translate(175, 5)" opacity="0.15">
    <path d="M25 12 C25 6 18 0 15 8 C12 0 5 6 5 12 C5 24 15 32 15 32 C15 32 25 24 25 12Z" fill="#D71F84"/>
    <circle cx="15" cy="38" r="6" fill="none" stroke="#D71F84" stroke-width="2"/>
    <line x1="15" y1="32" x2="15" y2="28" stroke="#D71F84" stroke-width="2"/>
  </g>
</svg>