<svg xmlns="http://www.w3.org/2000/svg" viewBox="0 0 600 300" fill="none">
  <defs>
    <linearGradient id="dbg" x1="0" y1="0" x2="1" y2="1">
      <stop offset="0%" stop-color="#D71F84"/>
      <stop offset="100%" stop-color="#6F2282"/>
    </linearGradient>
    <linearGradient id="dcoat" x1="0" y1="0" x2="0" y2="1">
      <stop offset="0%" stop-color="#FFFFFF"/>
      <stop offset="100%" stop-color="#F0F4F8"/>
    </linearGradient>
  </defs>
  <!-- Background -->
  <rect width="600" height="300" fill="url(#dbg)" rx="0"/>
  <!-- Decorative circles -->
  <circle cx="500" cy="80" r="120" fill="white" opacity="0.04"/>
  <circle cx="100" cy="250" r="80" fill="white" opacity="0.03"/>
  <!-- Paw prints scattered -->
  <g opacity="0.06" fill="white">
    <path d="M40 40c2 0 3.5 3 3.5 7s-1.5 7-3.5 7-3.5-3-3.5-7 1.5-7 3.5-7zm-7 11c-1.5 0-2.5-2-2.5-5s1-5 2.5-5 2.5 2 2.5 5-1 5-2.5 5zm14 0c-1.5 0-2.5-2-2.5-5s1-5 2.5-5 2.5 2 2.5 5-1 5-2.5 5z"/>
    <path d="M530 50c2 0 3.5 3 3.5 7s-1.5 7-3.5 7-3.5-3-3.5-7 1.5-7 3.5-7zm-7 11c-1.5 0-2.5-2-2.5-5s1-5 2.5-5 2.5 2 2.5 5-1 5-2.5 5zm14 0c-1.5 0-2.5-2-2.5-5s1-5 2.5-5 2.5 2 2.5 5-1 5-2.5 5z"/>
    <path d="M480 250c2 0 3.5 3 3.5 7s-1.5 7-3.5 7-3.5-3-3.5-7 1.5-7 3.5-7zm-7 11c-1.5 0-2.5-2-2.5-5s1-5 2.5-5 2.5 2 2.5 5-1 5-2.5 5zm14 0c-1.5 0-2.5-2-2.5-5s1-5 2.5-5 2.5 2 2.5 5-1 5-2.5 5z"/>
  </g>
  <!-- Medical cross pattern -->
  <g opacity="0.04" fill="white">
    <rect x="420" y="30" width="15" height="40" rx="3"/>
    <rect x="408" y="42" width="40" height="15" rx="3"/>
    <rect x="80" y="220" width="12" height="32" rx="3"/>
    <rect x="70" y="230" width="32" height="12" rx="3"/>
  </g>
  <!-- Heart rate monitor line -->
  <polyline points="0,150 30,150 42,150 48,120 54,180 60,130 66,155 78,150 84,140 90,155 96,145 102,150 120,150" stroke="white" stroke-width="2" fill="none" opacity="0.08"/>
  <!-- === VETERINARIAN (center) === -->
  <g transform="translate(200, 30)">
    <!-- Body -->
    <path d="M80 100 L68 220 L132 220 L120 100Z" fill="url(#dcoat)"/>
    <path d="M90 100 L95 120 L105 120 L110 100" fill="white" stroke="#E2E8F0" stroke-width="1"/>
    <circle cx="100" cy="135" r="2.5" fill="#D71F84"/>
    <circle cx="100" cy="150" r="2.5" fill="#D71F84"/>
    <circle cx="100" cy="165" r="2.5" fill="#D71F84"/>
    <!-- Head -->
    <circle cx="100" cy="72" r="32" fill="#E8B89A"/>
    <!-- Hair -->
    <path d="M68 65 Q75 28 100 32 Q125 28 132 65" fill="#3D2B1F"/>
    <ellipse cx="100" cy="30" rx="16" ry="12" fill="#3D2B1F"/>
    <!-- Face -->
    <ellipse cx="90" cy="70" rx="4.5" ry="5" fill="white"/>
    <ellipse cx="110" cy="70" rx="4.5" ry="5" fill="white"/>
    <circle cx="91" cy="70" r="3" fill="#4A3728"/>
    <circle cx="111" cy="70" r="3" fill="#4A3728"/>
    <circle cx="92" cy="69" r="1.2" fill="white"/>
    <circle cx="112" cy="69" r="1.2" fill="white"/>
    <path d="M96 78 L100 81 L104 78" fill="#D4856A"/>
    <path d="M93 84 Q100 89 107 84" stroke="#C07A5A" stroke-width="2" fill="none" stroke-linecap="round"/>
    <!-- Stethoscope -->
    <path d="M90 95 Q78 105 76 118 Q74 130 82 134" stroke="#555" stroke-width="3" fill="none"/>
    <circle cx="82" cy="137" r="6" fill="#777" stroke="#555" stroke-width="1.5"/>
    <!-- Left arm (holding clipboard) -->
    <path d="M80 120 Q55 135 45 145" stroke="white" stroke-width="12" stroke-linecap="round" fill="none"/>
    <circle cx="43" cy="147" r="7" fill="#E8B89A"/>
    <!-- Clipboard -->
    <rect x="20" y="120" width="45" height="58" rx="4" fill="#F5F0E8" stroke="#C8B8A0" stroke-width="1.5"/>
    <rect x="35" y="116" width="15" height="8" rx="3" fill="#C8B8A0"/>
    <line x1="28" y1="138" x2="58" y2="138" stroke="#D71F84" stroke-width="2"/>
    <line x1="28" y1="146" x2="55" y2="146" stroke="#DDD" stroke-width="1.5"/>
    <line x1="28" y1="153" x2="52" y2="153" stroke="#DDD" stroke-width="1.5"/>
    <line x1="28" y1="160" x2="50" y2="160" stroke="#DDD" stroke-width="1.5"/>
    <circle cx="25" cy="138" r="2.5" fill="#27AE60"/>
    <circle cx="25" cy="146" r="2.5" fill="#27AE60"/>
    <!-- Right arm (petting cat) -->
    <path d="M120 120 Q140 135 145 150" stroke="white" stroke-width="12" stroke-linecap="round" fill="none"/>
    <circle cx="147" cy="152" r="7" fill="#E8B89A"/>
  </g>
  <!-- === PERSIAN CAT (left side, sitting) === -->
  <g transform="translate(20, 130)">
    <ellipse cx="55" cy="85" rx="42" ry="38" fill="#F5EDE8"/>
    <circle cx="55" cy="50" r="28" fill="#F5EDE8"/>
    <circle cx="55" cy="55" r="18" fill="#FAF5F0"/>
    <path d="M32 32 L27 12 L40 28Z" fill="#F0E6DE"/>
    <path d="M78 32 L83 12 L70 28Z" fill="#F0E6DE"/>
    <path d="M34 30 L30 18 L38 28Z" fill="#F0C0B0"/>
    <path d="M76 30 L80 18 L72 28Z" fill="#F0C0B0"/>
    <circle cx="46" cy="48" r="5" fill="white"/>
    <circle cx="64" cy="48" r="5" fill="white"/>
    <circle cx="46.5" cy="48" r="3" fill="#D4956A"/>
    <circle cx="64.5" cy="48" r="3" fill="#D4956A"/>
    <circle cx="47.5" cy="47" r="1.2" fill="white"/>
    <circle cx="65.5" cy="47" r="1.2" fill="white"/>
    <ellipse cx="55" cy="55" rx="3" ry="2" fill="#D4856A"/>
    <path d="M50 59 Q55 63 60 59" stroke="#C07A5A" stroke-width="1.5" fill="none"/>
    <path d="M25 50 L40 53" stroke="#D4C4B8" stroke-width="1"/>
    <path d="M23 56 L39 56" stroke="#D4C4B8" stroke-width="1"/>
    <path d="M70 53 L85 50" stroke="#D4C4B8" stroke-width="1"/>
    <path d="M71 56 L87 56" stroke="#D4C4B8" stroke-width="1"/>
    <path d="M95 80 Q110 65 108 48 Q106 42 103 46 Q98 58 93 75" fill="#F5EDE8"/>
    <ellipse cx="35" cy="120" rx="12" ry="8" fill="#F0E6DE"/>
    <ellipse cx="75" cy="120" rx="12" ry="8" fill="#F0E6DE"/>
    <!-- Happy cat expression -->
    <path d="M43 44 Q46 41 49 44" stroke="#888" stroke-width="1.5" fill="none"/>
    <path d="M61 44 Q64 41 67 44" stroke="#888" stroke-width="1.5" fill="none"/>
  </g>
  <!-- === MAINE COON (right side) === -->
  <g transform="translate(380, 140)">
    <ellipse cx="60" cy="80" rx="45" ry="40" fill="#D4B896"/>
    <path d="M35 72 Q60 65 85 72" stroke="#B09070" stroke-width="1.5" fill="none" opacity="0.3"/>
    <path d="M30 82 Q60 75 90 82" stroke="#B09070" stroke-width="1.5" fill="none" opacity="0.3"/>
    <circle cx="60" cy="38" r="26" fill="#D4B896"/>
    <path d="M38 20 L28 -2 L46 16Z" fill="#C4A882"/>
    <path d="M82 20 L92 -2 L74 16Z" fill="#C4A882"/>
    <path d="M32 8 L26 0 L36 6Z" fill="#D4B896"/>
    <path d="M88 8 L94 0 L84 6Z" fill="#D4B896"/>
    <path d="M40 32 Q30 45 34 58 Q38 48 42 40Z" fill="#E0C8A8"/>
    <path d="M80 32 Q90 45 86 58 Q82 48 78 40Z" fill="#E0C8A8"/>
    <circle cx="52" cy="36" r="4" fill="white"/>
    <circle cx="68" cy="36" r="4" fill="white"/>
    <circle cx="52.5" cy="36" r="2.5" fill="#27AE60"/>
    <circle cx="68.5" cy="36" r="2.5" fill="#27AE60"/>
    <circle cx="53.5" cy="35" r="1" fill="white"/>
    <circle cx="69.5" cy="35" r="1" fill="white"/>
    <path d="M57 42 L60 44 L63 42" fill="#8B6F47"/>
    <path d="M54 46 Q60 50 66 46" stroke="#7A5F37" stroke-width="1.5" fill="none"/>
    <path d="M28 40 L45 42" stroke="#C4A882" stroke-width="1"/>
    <path d="M75 42 L92 40" stroke="#C4A882" stroke-width="1"/>
    <path d="M100 75 Q118 58 116 38 Q114 30 110 34 Q105 48 98 68" fill="#C4A882"/>
    <path d="M102 70 Q116 55 114 40 Q112 34 109 37 Q105 48 100 65" fill="#D4B896"/>
    <ellipse cx="42" cy="118" rx="12" ry="8" fill="#D4B896"/>
    <ellipse cx="78" cy="118" rx="12" ry="8" fill="#D4B896"/>
  </g>
  <!-- Heart icon -->
  <g transform="translate(290, 40)">
    <path d="M10 6 C10 2 5 -2 2 4 C-1 -2 -6 2 -6 6 C-6 14 2 20 2 20 C2 20 10 14 10 6Z" fill="white" opacity="0.15" transform="scale(2.5)"/>
  </g>
  <!-- Paw icon -->
  <g transform="translate(520, 230)" opacity="0.12" fill="white">
    <ellipse cx="0" cy="10" rx="10" ry="12"/>
    <ellipse cx="-10" cy="-4" rx="6" ry="8"/>
    <ellipse cx="2" cy="-8" rx="5.5" ry="8"/>
    <ellipse cx="12" cy="-4" rx="6" ry="8"/>
  </g>
  <!-- Text overlay -->
  <text x="300" y="280" text-anchor="middle" font-family="'Noto Serif',serif" font-size="14" fill="white" opacity="0.6">Veterinary Expert System</text>
</svg>